<svg width="50" height="50" viewBox="0 0 50 50" fill="none" xmlns="http://www.w3.org/2000/svg">
<path d="M25 38.1421H12.359C10.906 38.2917 8 37.6035 8 33.6538C8 31.4043 8.94259 30.1157 10.0225 29.4231C11.0939 28.736 12.1102 27.5417 12.0006 26.2736C11.3433 18.6666 14.3494 7.92596 25 7.92596" stroke="black" stroke-width="3"/>
<path d="M8.3617 42.9075C8.3617 43.4598 7.91104 43.9158 7.36619 43.8255C6.87337 43.7438 6.3903 43.6016 5.92718 43.4009C5.15535 43.0665 4.45404 42.5762 3.8633 41.9582C3.27256 41.3402 2.80396 40.6066 2.48426 39.7991C2.28686 39.3006 2.14862 38.78 2.07173 38.2488C1.9926 37.7023 2.44772 37.2523 3 37.2523L3.96104 37.2523C4.51332 37.2523 4.9477 37.7079 5.0948 38.2402C5.12978 38.3668 5.17151 38.4915 5.2199 38.6137C5.3908 39.0453 5.64129 39.4375 5.95707 39.7679C6.27285 40.0982 6.64774 40.3603 7.06032 40.539C7.16424 40.5841 7.27004 40.6236 7.37732 40.6575C7.90388 40.8241 8.3617 41.2576 8.3617 41.8098L8.3617 42.9075Z" fill="black"/>
<path d="M41.6383 42.9075C41.6383 43.4598 42.089 43.9158 42.6338 43.8255C43.1266 43.7438 43.6097 43.6016 44.0728 43.4009C44.8447 43.0665 45.546 42.5762 46.1367 41.9582C46.7274 41.3402 47.196 40.6066 47.5157 39.7991C47.7131 39.3006 47.8514 38.78 47.9283 38.2488C48.0074 37.7023 47.5523 37.2523 47 37.2523L46.039 37.2523C45.4867 37.2523 45.0523 37.7079 44.9052 38.2402C44.8702 38.3668 44.8285 38.4915 44.7801 38.6137C44.6092 39.0453 44.3587 39.4375 44.0429 39.7679C43.7271 40.0982 43.3523 40.3603 42.9397 40.539C42.8358 40.5841 42.73 40.6236 42.6227 40.6575C42.0961 40.8241 41.6383 41.2576 41.6383 41.8098L41.6383 42.9075Z" fill="black"/>
<path d="M25 38.1421H37.641C39.094 38.2917 42 37.6035 42 33.6538C42 31.4043 41.0574 30.1157 39.9775 29.4231C38.9061 28.736 37.8898 27.5417 37.9994 26.2736C38.6567 18.6666 35.6506 7.92596 25 7.92596" stroke="black" stroke-width="3"/>
<path d="M23 6.72495C23 5.77229 23.7723 5 24.725 5V5C25.6776 5 26.4499 5.77229 26.4499 6.72495V6.82851C26.4499 7.78118 25.6776 8.55346 24.725 8.55346V8.55346C23.7723 8.55346 23 7.78118 23 6.82851V6.72495Z" fill="black"/>
<path d="M27.9841 40.358C28.5364 40.358 28.9957 40.8117 28.8685 41.3491C28.6958 42.0782 28.3343 42.7514 27.8148 43.2911C27.0662 44.069 26.0508 44.5061 24.992 44.5061C23.9333 44.5061 22.9179 44.069 22.1692 43.2911C21.6498 42.7514 21.2883 42.0782 21.1156 41.3491C20.9883 40.8117 21.4477 40.358 22 40.358L24.992 40.358H27.9841Z" fill="black"/>
</svg>
