<svg width="50" height="50" viewBox="0 0 50 50" fill="none" xmlns="http://www.w3.org/2000/svg">
<path d="M8.5 21.5H42.5V41C42.5 42.3807 41.3807 43.5 40 43.5H11C9.61929 43.5 8.5 42.3807 8.5 41V21.5Z" stroke="black" stroke-width="3"/>
<path d="M11 10.5H40C41.3807 10.5 42.5 11.6193 42.5 13V17.5H8.5V13C8.5 11.6193 9.61929 10.5 11 10.5Z" stroke="black" stroke-width="3"/>
<rect x="11" y="6" width="3" height="4" rx="1.5" fill="black"/>
<rect x="11" y="6" width="3" height="4" rx="1.5" fill="black"/>
<rect x="11" y="6" width="3" height="4" rx="1.5" fill="black"/>
<rect x="11" y="6" width="3" height="4" rx="1.5" fill="black"/>
<rect x="37" y="6" width="3" height="4" rx="1.5" fill="black"/>
<rect x="37" y="6" width="3" height="4" rx="1.5" fill="black"/>
<rect x="37" y="6" width="3" height="4" rx="1.5" fill="black"/>
<rect x="37" y="6" width="3" height="4" rx="1.5" fill="black"/>
<rect x="12" y="25" width="7" height="6" rx="1" fill="black"/>
<rect x="12" y="25" width="7" height="6" rx="1" fill="black"/>
<rect x="22" y="25" width="7" height="6" rx="1" fill="black"/>
<rect x="22" y="25" width="7" height="6" rx="1" fill="black"/>
<path d="M32 26C32 25.4477 32.4477 25 33 25H38C38.5523 25 39 25.4477 39 26V30C39 30.5523 38.5523 31 38 31H33C32.4477 31 32 30.5523 32 30V26Z" fill="black"/>
<path d="M32 26C32 25.4477 32.4477 25 33 25H38C38.5523 25 39 25.4477 39 26V30C39 30.5523 38.5523 31 38 31H33C32.4477 31 32 30.5523 32 30V26Z" fill="black"/>
<rect x="12" y="34" width="7" height="6" rx="1" fill="black"/>
<rect x="12" y="34" width="7" height="6" rx="1" fill="black"/>
<rect x="22" y="34" width="7" height="6" rx="1" fill="black"/>
<rect x="22" y="34" width="7" height="6" rx="1" fill="black"/>
<path d="M32 35C32 34.4477 32.4477 34 33 34H38C38.5523 34 39 34.4477 39 35V39C39 39.5523 38.5523 40 38 40H33C32.4477 40 32 39.5523 32 39V35Z" fill="black"/>
<path d="M32 35C32 34.4477 32.4477 34 33 34H38C38.5523 34 39 34.4477 39 35V39C39 39.5523 38.5523 40 38 40H33C32.4477 40 32 39.5523 32 39V35Z" fill="black"/>
</svg>
