<svg width="50" height="50" viewBox="0 0 50 50" fill="none" xmlns="http://www.w3.org/2000/svg">
<path d="M8.46969 42.038L8.03853 8.03804C8.01733 6.36644 9.36656 5 11.0383 5H40C41.6569 5 43 6.34315 43 8V42C43 43.6569 41.6569 45 40 45H11.4694C9.82743 45 8.49051 43.6799 8.46969 42.038Z" stroke="black" stroke-width="3"/>
<rect x="13" y="9" width="10" height="11" rx="1" fill="black"/>
<path d="M13 38C13 37.4477 13.4477 37 14 37H37C37.5523 37 38 37.4477 38 38V39C38 39.5523 37.5523 40 37 40H14C13.4477 40 13 39.5523 13 39V38Z" fill="black"/>
<path d="M13 31C13 30.4477 13.4477 30 14 30H37C37.5523 30 38 30.4477 38 31V32C38 32.5523 37.5523 33 37 33H14C13.4477 33 13 32.5523 13 32V31Z" fill="black"/>
<path d="M13 24C13 23.4477 13.4477 23 14 23H37C37.5523 23 38 23.4477 38 24V25C38 25.5523 37.5523 26 37 26H14C13.4477 26 13 25.5523 13 25V24Z" fill="black"/>
<path d="M25 17C25 16.4477 25.4477 16 26 16H37C37.5523 16 38 16.4477 38 17V18C38 18.5523 37.5523 19 37 19H26C25.4477 19 25 18.5523 25 18V17Z" fill="black"/>
<path d="M25 11C25 10.4477 25.4477 10 26 10H37C37.5523 10 38 10.4477 38 11V12C38 12.5523 37.5523 13 37 13H26C25.4477 13 25 12.5523 25 12V11Z" fill="black"/>
</svg>
